<svg width="24" height="24" viewBox="0 0 24 24" fill="none" xmlns="http://www.w3.org/2000/svg">
<path d="M2 4V20C2 20.5304 2.26339 21.0391 2.73223 21.4142C3.20107 21.7893 3.83696 22 4.5 22H19.5C20.163 22 20.7989 21.7893 21.2678 21.4142C21.7366 21.0391 22 20.5304 22 20V8.342C22 8.07556 21.9334 7.81181 21.8041 7.56624C21.6749 7.32068 21.4857 7.09824 21.2475 6.912L15.6975 2.57C15.2305 2.20466 14.6032 2.00007 13.95 2H4.5C3.83696 2 3.20107 2.21071 2.73223 2.58579C2.26339 2.96086 2 3.46957 2 4Z" stroke="white" stroke-width="4" stroke-linecap="round" stroke-linejoin="round"/>
<path d="M14.5 2V6C14.5 6.53043 14.7634 7.03914 15.2322 7.41421C15.7011 7.78929 16.337 8 17 8H22" stroke="white" stroke-width="4" stroke-linejoin="round"/>
</svg>
